<svg width="64" height="64" xmlns="http://www.w3.org/2000/svg"><path fill="none" d="M-1-1h66v66H-1z"/><path stroke-linecap="round" stroke-width="3" stroke="#fff" fill="none" d="M52.847 5.15v-.072q0-.072-.05-.195-.051-.123-.167-.144-.115-.021-.512-.257-.398-.236-1.065-.448-.668-.212-1.738-.524-1.071-.313-2.563-.434-1.492-.121-3.378.07-1.885.191-4.132.736-2.248.544-4.708 1.483-2.46.939-5.17 2.279-2.711 1.34-5.173 3.134-2.463 1.793-4.798 3.955-2.334 2.161-4.465 4.518-2.13 2.357-3.8 4.826-1.671 2.468-3.096 5.185-1.425 2.717-2.426 5.37-1 2.652-1.499 5.22-.498 2.57-.502 4.921-.003 2.351.48 4.405.481 2.054 1.693 3.804 1.211 1.751 2.89 3.105 1.68 1.354 3.784 2.158 2.104.803 4.313 1.056 2.21.252 4.422.022 2.213-.23 4.673-1.1 2.46-.87 4.904-2.58 2.444-1.712 4.912-4.048 2.467-2.335 4.657-5.029t4.016-5.405q1.827-2.71 3.487-5.369 1.66-2.658 3.089-5.406 1.43-2.747 2.692-5.861 1.262-3.114 2.292-6.297 1.03-3.182 1.826-5.89.795-2.706 1.277-4.618.483-1.911.614-3.142.132-1.23.091-1.779-.04-.548-.221-.755-.182-.206-.496-.17-.315.034-.994.388-.68.355-1.806 1.372-1.126 1.017-2.452 2.748-1.325 1.731-2.618 4.124-1.293 2.392-2.44 5.148-1.146 2.755-2.154 5.736t-1.603 5.952q-.596 2.97-.876 5.837-.28 2.866-.28 5.542 0 2.676.094 4.99.094 2.313.914 4.355.82 2.042 2.34 4.1 1.52 2.057 3.574 4.021 2.053 1.964 4.679 3.722 2.626 1.759 3.143 2.008l.517.249"/></svg>