<svg width="805" height="340" xmlns="http://www.w3.org/2000/svg"><path fill="none" d="M-1-1h807v342H-1z"/><path stroke-linecap="round" stroke-width="15.215" stroke="#fff" fill="none" d="M315.91 13.675l-1.843-1.843q-1.843-1.843-8.04-2.058-6.197-.214-22.846 2.872-16.65 3.086-36.558 10.613-19.91 7.527-48.334 23.307-28.425 15.78-60.56 40.35-32.135 24.571-58.168 53.243-26.033 28.67-44.584 58.208-18.55 29.538-23.54 52.325-4.99 22.787 6.651 37.088 11.642 14.3 36.186 17.09 24.545 2.79 54.965-8.092 30.42-10.883 64.872-35.753 34.453-24.87 69.235-57.016 34.782-32.147 62.824-64.616 28.042-32.468 47.217-57.289 19.175-24.82 30.05-40.402 10.876-15.582 11.794-21.577.917-5.995-.49-8.66-1.408-2.664-9.68.498T354.89 29.511q-21.9 14.386-51.21 45.35-29.31 30.963-57.068 67.59-27.758 36.628-49.471 71.254-21.713 34.627-31.61 59.985-9.897 25.358-7.495 40.373 2.403 15.016 19.139 15.559 16.735.543 49.416-11.868 32.68-12.411 61.874-37.734 29.195-25.322 50.037-50.532 20.841-25.21 32.574-37.718 11.733-12.508 15.41-16.185 3.677-3.677 3.531-3.583-.146.093-4.35 4.303-4.205 4.21-13.391 15.536-9.187 11.326-15.306 21.542-6.119 10.216-6.102 14.28.017 4.064 3.96 5.11 3.943 1.044 15.894 1.044 11.95 0 32.23-3.958 20.278-3.958 38.809-6.172 18.53-2.214 29.15-2.214 10.619 0 13.191.857 2.572.856 2.572 3.742 0 2.887-.827 6.972-.828 4.085-1.03 6.32-.2 2.234 1.62 2.459 1.82.224 7.893.224 6.073 0 23.825-3.54 17.751-3.54 40.513-9.379 22.762-5.838 38.937-8.477 16.176-2.64 23.948-2.966 7.772-.327 9.485.324 1.712.65 1.712 3.257v6.786q0 4.179.597 6.597.596 2.418 4.34 3.88 3.743 1.46 16.566 1.46h68.404q15.65 0 27.55.483 11.902.482 18.6 4.037 6.7 3.554 8.694 3.966 1.994.412 5.676 2.136 3.682 1.723 7.282 3.168l3.601 1.444"/></svg>